
  <svg width="216.75" height="48" viewBox="0 0 1156 256" fill="none" xmlns="http://www.w3.org/2000/svg" xmlns:xlink="http://www.w3.org/1999/xlink" version="1.1">
    
        <g transform="translate(0, 0)">
          <svg xmlns="http://www.w3.org/2000/svg" width="256" height="256" fill="none" viewBox="0 0 256 256"><rect width="256" height="256" fill="#242938" rx="60"/><path fill="url(#paint0_linear_2_47)" d="M127.279 29C76.5066 29 79.6772 51.018 79.6772 51.018L79.7338 73.8284H128.185V80.6772H60.4893C60.4893 80.6772 28 76.9926 28 128.222C28 179.452 56.3573 177.636 56.3573 177.636H73.2812V153.863C73.2812 153.863 72.369 125.506 101.186 125.506H149.24C149.24 125.506 176.239 125.942 176.239 99.4123V55.5461C176.239 55.5461 180.338 29 127.279 29ZM100.563 44.339C105.384 44.339 109.28 48.2351 109.28 53.0556C109.28 57.8761 105.384 61.7723 100.563 61.7723C95.7426 61.7723 91.8465 57.8761 91.8465 53.0556C91.8465 48.2351 95.7426 44.339 100.563 44.339Z"/><path fill="url(#paint1_linear_2_47)" d="M128.721 227.958C179.493 227.958 176.323 205.941 176.323 205.941L176.266 183.13H127.815V176.281H195.511C195.511 176.281 228 179.966 228 128.736C228 77.5062 199.643 79.323 199.643 79.323H182.719V103.096C182.719 103.096 183.631 131.453 154.814 131.453H106.76C106.76 131.453 79.7607 131.016 79.7607 157.546V201.412C79.7607 201.412 75.6615 227.958 128.721 227.958ZM155.437 212.619C150.616 212.619 146.72 208.723 146.72 203.903C146.72 199.082 150.616 195.186 155.437 195.186C160.257 195.186 164.154 199.082 164.154 203.903C164.154 208.723 160.257 212.619 155.437 212.619Z"/><defs><linearGradient id="paint0_linear_2_47" x1="47.22" x2="146.333" y1="46.896" y2="145.02" gradientUnits="userSpaceOnUse"><stop stop-color="#387EB8"/><stop offset="1" stop-color="#366994"/></linearGradient><linearGradient id="paint1_linear_2_47" x1="108.056" x2="214.492" y1="109.905" y2="210.522" gradientUnits="userSpaceOnUse"><stop stop-color="#FFE052"/><stop offset="1" stop-color="#FFC331"/></linearGradient></defs></svg>
        </g>
         
        <g transform="translate(300, 0)">
          <svg xmlns="http://www.w3.org/2000/svg" width="256" height="256" fill="none" viewBox="0 0 256 256"><rect width="256" height="256" fill="#E14E1D" rx="60"/><path fill="#fff" d="M48 38L56.6098 134.593H167.32L163.605 176.023L127.959 185.661L92.38 176.037L90.0012 149.435H57.9389L62.5236 200.716L127.951 218.888L193.461 200.716L202.244 102.655H85.8241L82.901 69.9448H205.041H205.139L208 38H48Z"/><path fill="#EBEBEB" d="M128 38H48L56.6098 134.593H128V102.655H85.8241L82.901 69.9448H128V38Z"/><path fill="#EBEBEB" d="M128 185.647L127.959 185.661L92.38 176.037L90.0012 149.435H57.9388L62.5236 200.716L127.951 218.888L128 218.874V185.647Z"/></svg>
        </g>
         
        <g transform="translate(600, 0)">
          <svg width="256" height="256" viewBox="0 0 256 256" fill="none" xmlns="http://www.w3.org/2000/svg">
<rect width="256" height="256" rx="60" fill="#0277BD"/>
<path d="M53.7527 102.651L56.6155 134.593H128.096V102.651H53.7527Z" fill="#EBEBEB"/>
<path d="M128.095 38H127.985H48L50.9036 69.9423H128.095V38Z" fill="#EBEBEB"/>
<path d="M128.095 218.841V185.608L127.955 185.645L92.3813 176.04L90.1072 150.564H72.821H58.0425L62.5175 200.718L127.948 218.882L128.095 218.841Z" fill="#EBEBEB"/>
<path d="M167.318 134.593L163.61 176.019L127.985 185.635V218.866L193.468 200.718L193.948 195.321L201.454 111.229L202.233 102.651L208 38H127.985V69.9423H172.994L170.088 102.651H127.985V134.593H167.318Z" fill="white"/>
</svg>

        </g>
         
        <g transform="translate(900, 0)">
          <svg xmlns="http://www.w3.org/2000/svg" width="256" height="256" fill="none" viewBox="0 0 256 256"><rect width="256" height="256" fill="#5865F2" rx="60"/><g clip-path="url(#clip0_158_82)"><path fill="#fff" d="M197.308 64.7966C184.561 58.9476 170.892 54.6383 156.599 52.1701C156.339 52.1225 156.079 52.2415 155.945 52.4796C154.187 55.6064 152.239 59.6856 150.876 62.8918C135.503 60.5904 120.21 60.5904 105.153 62.8918C103.789 59.6143 101.771 55.6064 100.005 52.4796C99.8707 52.2495 99.6107 52.1305 99.3504 52.1701C85.0659 54.6304 71.3963 58.9397 58.6411 64.7966C58.5307 64.8442 58.4361 64.9236 58.3732 65.0267C32.4449 103.763 25.3421 141.547 28.8265 178.863C28.8423 179.046 28.9447 179.22 29.0867 179.331C46.1934 191.894 62.7642 199.521 79.0273 204.576C79.2876 204.655 79.5634 204.56 79.729 204.346C83.5761 199.092 87.0054 193.553 89.9456 187.728C90.1192 187.386 89.9535 186.982 89.5989 186.847C84.1594 184.783 78.98 182.268 73.9977 179.411C73.6037 179.181 73.5721 178.617 73.9347 178.347C74.9831 177.561 76.0318 176.744 77.033 175.919C77.2141 175.768 77.4665 175.736 77.6794 175.831C110.411 190.775 145.846 190.775 178.191 175.831C178.404 175.728 178.657 175.76 178.846 175.911C179.847 176.736 180.895 177.561 181.952 178.347C182.314 178.617 182.291 179.181 181.897 179.411C176.914 182.323 171.735 184.783 166.288 186.839C165.933 186.974 165.775 187.386 165.949 187.728C168.952 193.545 172.381 199.084 176.157 204.338C176.315 204.56 176.599 204.655 176.859 204.576C193.201 199.521 209.772 191.894 226.879 179.331C227.028 179.22 227.123 179.053 227.139 178.871C231.309 135.73 220.154 98.2554 197.568 65.0346C197.513 64.9236 197.419 64.8442 197.308 64.7966ZM94.8335 156.142C84.9792 156.142 76.8594 147.095 76.8594 135.984C76.8594 124.873 84.8217 115.826 94.8335 115.826C104.924 115.826 112.965 124.953 112.807 135.984C112.807 147.095 104.845 156.142 94.8335 156.142ZM161.29 156.142C151.435 156.142 143.316 147.095 143.316 135.984C143.316 124.873 151.278 115.826 161.29 115.826C171.38 115.826 179.421 124.953 179.264 135.984C179.264 147.095 171.38 156.142 161.29 156.142Z"/></g><defs><clipPath id="clip0_158_82"><rect width="200" height="154.93" fill="#fff" transform="translate(28 51)"/></clipPath></defs></svg>
        </g>
        
  </svg>
  